<svg width="1451" height="1288" viewBox="0 0 1451 1288" fill="none" xmlns="http://www.w3.org/2000/svg">
<path d="M171.366 702.575C162.312 814.093 174.117 866.159 233.589 935.24C296.759 992.744 356.055 1002.47 486.92 996.152V1126.27L470.906 1168.6C292.328 1170.14 210.657 1148.23 116.059 1063.06C19.5958 945.186 -7.02614 866.94 1.49121 702.575H171.366ZM654.793 682.546L549.362 961.222C509.416 891.868 490.075 805.856 486.924 695.815H486.894V391.754H246.403V221H654.794L654.793 682.546Z" fill="#36646D"/>
<path d="M222.344 662.872C213.289 774.39 225.095 826.456 284.566 895.537C347.736 953.04 407.033 962.767 537.897 956.449V1058.34L511.201 1128.96C511.022 1128.96 510.842 1128.96 510.663 1128.96L450.354 1288L478.159 1128.75C329.254 1126.23 253.551 1101.25 167.036 1023.35C70.5732 905.483 43.9514 827.237 52.4688 662.872H222.344ZM725.301 675.735C740.475 818.091 789.49 877.609 921.103 938.245V937.977C1016.9 963.96 1065.15 962.834 1140.36 932.484C1226.51 885.851 1261.12 853.376 1291.96 781.201L1448.51 841.115C1415.43 919.437 1377.83 963.125 1291.96 1040.83L1291.83 1040.73C1165.48 1122.84 1084.81 1142.56 928.093 1119.75C925.727 1119.23 923.653 1118.58 921.354 1118L921.103 1118.04C782.233 1069.94 688.681 1011.26 630.752 925.838L725.301 675.735ZM722.093 571.106L604.878 881.164C572.871 815.84 557.047 736.523 554.223 637.908H554.192V333.847H313.701V163.093H722.093V571.106ZM941.383 182.667C961.721 178.638 982.176 176.837 1005.7 176.794C1202.36 169.501 1394.41 298.668 1449.66 464.185C1450.09 465.168 1450.54 466.155 1450.98 467.149L1287.52 519.573C1286.43 517.421 1285.34 515.313 1284.27 513.246C1258.51 436.901 1183.38 372.256 1085.3 351.923C1027.68 339.978 971.386 345.243 923.923 363.771C908.473 369.213 893.046 376.464 876.167 385.767V276.663L908.521 191.077C908.546 191.069 908.571 191.061 908.596 191.054L981.224 0L941.383 182.667Z" fill="#85BCC7"/>
<path d="M635.5 922.5C794.5 1146.5 1225.5 1275 1443 840" stroke="#85BCC7" stroke-width="10"/>
<path d="M57.0136 672.5C31.0001 922.5 201.5 1113.5 381.514 1113.5" stroke="#85BCC7" stroke-width="10"/>
</svg>
